Coordinates
version=1
nRows=19
nColumns=36
inDegrees=yes

Units are S.I. units (second, meters, Newtons, ...)
If the header above contains a line with 'inDegrees', this indicates whether rotational values are in degrees (yes) or radians (no).

endheader
time	pelvis_tilt	pelvis_list	pelvis_rotation	pelvis_tx	pelvis_ty	pelvis_tz	hip_flexion_r	hip_adduction_r	hip_rotation_r	knee_angle_r	knee_angle_r_beta	ankle_angle_r	subtalar_angle_r	mtp_angle_r	hip_flexion_l	hip_adduction_l	hip_rotation_l	knee_angle_l	knee_angle_l_beta	ankle_angle_l	subtalar_angle_l	mtp_angle_l	lumbar_extension	lumbar_bending	lumbar_rotation	arm_flex_r	arm_add_r	arm_rot_r	elbow_flex_r	pro_sup_r	arm_flex_l	arm_add_l	arm_rot_l	elbow_flex_l	pro_sup_l
     14.81666670	      3.61434591	      5.78024781	   -171.80405286	      0.51320674	      1.02416691	      0.85306326	     20.07256554	     -5.23338685	      1.01913965	     35.61226561	      0.62155129	     11.23031105	     -7.87608296	     -7.49999987	     24.97363643	    -12.35478837	     12.70625746	     46.07686036	      0.80419292	     19.86269568	     -8.38190402	     -7.49999987	    -10.91594546	      5.24510501	     -1.91864839	     10.32354317	     -3.57565127	      0.31974012	     16.01256606	     80.68891652	     13.23199411	     -2.35492027	     -1.04624411	     17.36268258	     78.03245954
     14.83333330	      2.99055959	      5.50937787	   -171.99811920	      0.51030924	      1.02947391	      0.85431388	     19.57618198	     -5.28563941	      2.13545951	     38.80595558	      0.67729169	      8.27521055	     -7.13872339	     -7.49999987	     23.75930887	    -12.00014714	     13.32567237	     48.49961730	      0.84647801	     18.90695258	     -9.49941981	     -7.49999987	    -11.11761275	      4.81205260	     -1.21819135	      9.77930091	     -4.05959476	      0.53269029	     15.92476792	     80.49122149	     13.09812043	     -2.57165255	     -1.32326804	     17.06459519	     78.69422885
     14.85000000	      2.53020282	      5.33537404	   -172.65385346	      0.50649218	      1.03136854	      0.85463312	     19.91399455	     -5.09069099	      3.53128322	     42.73650704	      0.74589276	      5.25990094	     -7.30844770	     -7.49999987	     22.82637680	    -11.74035539	     13.65816620	     51.12979210	      0.89238322	     17.72316531	    -10.56111635	     -7.49999987	    -11.64357238	      4.57584917	     -0.21096357	      9.55707396	     -4.62792606	      0.36265685	     16.04645246	     79.88557140	     13.20054970	     -2.67901759	     -1.55392611	     16.80984262	     78.81658644
     14.86666670	      2.01146079	      5.13236844	   -173.57581297	      0.50231588	      1.02860408	      0.85452948	     20.80190923	     -4.81008996	      4.71188722	     47.42821297	      0.82777847	      1.71234045	     -7.41032789	     -7.49999987	     21.98459475	    -11.39611032	     13.73128678	     53.86681608	      0.94015330	     15.90222557	    -11.79024939	     -7.49999987	    -12.45032362	      4.36170301	      0.78474972	      9.75347678	     -5.26243977	      0.10941248	     16.15193290	     79.85061850	     13.27073752	     -2.86466983	     -1.65708324	     16.90349351	     78.89488910
     14.88333330	      1.61733919	      5.00165768	   -174.60879308	      0.49847054	      1.02249585	      0.85408135	     22.25437554	     -4.24085682	      6.00458432	     52.53403265	      0.91689184	     -0.35576824	     -8.80952657	     -7.49999987	     21.72763560	    -10.98862245	     13.67767693	     57.04784497	      0.99567273	     14.46282963	    -13.55709113	     -7.49999987	    -13.27780662	      4.26352680	      2.02852315	      9.94620694	     -6.04184064	     -0.24869241	     16.74316063	     79.76468500	     13.53208693	     -2.96696909	     -1.76541985	     17.17728167	     78.96895310
     14.90000000	      1.19206886	      5.10904934	   -175.70834434	      0.49424860	      1.01560999	      0.85288015	     23.74647285	     -3.20082216	      7.22511809	     57.44386057	      1.00258450	     -0.79465540	    -10.72722866	     -7.49999987	     21.88803156	    -10.77204780	     13.42797189	     60.40498086	      1.05426580	     13.18162059	    -15.63338296	     -7.49999987	    -14.07052401	      4.47101535	      3.22803472	     10.30001334	     -6.87108340	     -0.57093769	     17.44076730	     79.69955786	     13.78624531	     -3.11695737	     -1.86863896	     17.61185172	     79.02569955
     14.91666670	      0.85919793	      5.21987191	   -176.29500358	      0.49050839	      1.01335903	      0.85124645	     24.44158611	     -2.08510962	      7.91335763	     60.51581423	      1.05620021	     -1.02149453	    -11.76901840	     -7.49999987	     22.52064615	    -10.31363964	     13.43693044	     63.36224499	      1.10587980	     11.94580219	    -17.82557662	     -7.49999987	    -14.57402057	      4.70035224	      4.16288803	     10.47565524	     -7.63873860	     -0.94539550	     18.20093423	     79.66026432	     14.18853690	     -3.36531136	     -1.94833425	     18.03926631	     79.12529250
     14.93333330	      0.57723344	      5.48491588	   -176.63644993	      0.48966128	      1.01699652	      0.84975860	     24.65745163	     -0.76904423	      8.21697104	     61.69407614	      1.07676476	     -1.01191609	    -12.66937620	     -7.49999987	     23.24168330	    -10.01444611	     13.27299398	     65.10911634	      1.13636845	     10.60666128	    -18.87545995	     -7.49999987	    -15.05198790	      5.14569725	      4.68311834	     10.90705135	     -8.38111936	     -1.23278146	     18.94970203	     79.65242748	     14.56183434	     -3.70537004	     -1.99761377	     18.43581489	     79.21309500
     14.95000000	      0.33101096	      6.01456860	   -176.84822384	      0.49021021	      1.02229369	      0.84903586	     24.61146795	      0.71929130	      8.06527163	     61.16360106	      1.06750622	     -1.36787381	    -15.01049471	     -7.49999987	     24.02942300	     -9.93965399	     13.01884521	     65.79239140	      1.14829385	      8.84211997	    -19.41870310	     -7.49999987	    -15.63472982	      5.93352702	      5.35351706	     11.33257140	     -9.36486538	     -1.60306586	     19.98389968	     79.78811239	     14.92093583	     -3.93298026	     -2.07286969	     18.94129689	     79.45057923
     14.96666670	      0.12023442	      6.54999513	   -177.07609287	      0.48886671	      1.02356078	      0.84826660	     24.44324298	      2.08861204	      7.61831740	     59.70469968	      1.04204359	     -2.19705564	    -18.92431857	     -7.49999987	     24.79867890	     -9.85778789	     12.58098955	     65.87120022	      1.14966933	      7.80689929	    -18.77626027	     -7.49999987	    -16.15114548	      6.67434699	      5.95999378	     11.94204614	    -10.27026205	     -2.03035727	     20.65160657	     79.51362677	     15.12707084	     -4.10444975	     -2.31572291	     19.26600113	     79.19452180
     14.98333330	     -0.14096670	      7.13164855	   -177.25853871	      0.48511459	      1.02569473	      0.84695892	     23.73374263	      3.38579535	      6.85754522	     57.22709661	      0.99880126	     -3.60619956	    -23.01992749	     -7.49999987	     25.15992048	     -9.75160009	     12.22874733	     65.08525687	      1.13595203	      6.23902565	    -18.63539450	     -7.49999987	    -16.49594410	      7.38625685	      6.53974640	     12.45152665	    -11.16610360	     -2.04141323	     20.97694482	     80.36419889	     15.09890755	     -4.26195062	     -2.58641426	     19.47333450	     80.01048182
     15.00000000	     -0.36174389	      7.63280656	   -177.35143412	      0.48203675	      1.03366905	      0.84573418	     22.64752900	      4.55699243	      6.00584156	     53.97466433	      0.94203561	     -4.44651989	    -26.33222571	     -7.49999987	     25.00952961	     -9.67696810	     11.77748473	     63.08822922	      1.10109732	      5.51638576	    -17.34817428	     -7.49999987	    -16.59398681	      7.91861887	      6.77127116	     12.88563296	    -11.72048196	     -2.07786773	     20.75557983	     81.34261905	     14.82344429	     -4.49411496	     -3.39627003	     19.47813056	     80.95007397
     15.01666670	     -0.85519564	      7.96398194	   -177.07708569	      0.48282827	      1.04639815	      0.84577916	     20.87097723	      5.35875848	      4.79512089	     49.87849976	      0.87054405	     -6.15395988	    -27.59811733	     -7.49999987	     24.13944724	     -9.36058922	     11.47121219	     59.82714284	      1.04418062	      4.02263337	    -16.67665482	     -7.49999987	    -17.13428962	      8.30404193	      6.73056404	     13.16030623	    -12.17954286	     -2.20547794	     20.71160582	     81.56265237	     14.60713744	     -4.75118062	     -3.84387576	     19.55202703	     81.23498563
     15.03333330	     -1.23238112	      7.75538444	   -176.92900739	      0.48833621	      1.05740141	      0.84540554	     19.27333347	      5.66661113	      3.74331580	     45.83647696	      0.79999744	     -9.77855100	    -28.85221693	     -7.49999987	     23.28293648	     -8.70309730	     10.61111659	     56.16003385	      0.98017750	      2.80654043	    -15.51925928	     -7.49999987	    -17.83776006	      8.00650151	      6.42292900	     13.61961002	    -12.37145556	     -2.86161388	     20.47029927	     84.27395426	     14.36328266	     -5.13517707	     -6.05171348	     20.00975742	     85.72508955
     15.05000000	     -1.24954452	      7.45987971	   -176.83397647	      0.49596546	      1.06400148	      0.84563665	     18.61299412	      5.73237814	      2.31634372	     42.66129136	      0.74458000	    -12.04067989	    -28.94371859	     -7.49999987	     23.08412850	     -7.89957220	      9.61246097	     52.85317126	      0.92246186	      1.53450351	    -15.44447403	     -7.49999987	    -18.53311424	      7.65796216	      6.19579464	     13.97784790	    -12.79661803	     -3.15940231	     20.65054469	     84.14676420	     14.26996751	     -5.71374102	     -5.62833070	     20.50814306	     85.89183688
     15.06666670	     -1.09152180	      7.22727814	   -177.15473680	      0.50093343	      1.06641870	      0.84624029	     18.66424481	      5.98749618	      1.15961480	     40.43283942	      0.70568617	    -13.02357947	    -29.44765367	     -7.49999987	     23.32391631	     -7.33332326	      7.99358682	     50.20704772	      0.87627829	      0.48538522	    -15.58331914	     -7.49999987	    -19.27141254	      7.32118625	      6.35020476	     14.43409126	    -13.43382960	     -3.54177667	     20.88139521	     83.96086706	     14.16515939	     -6.32132977	     -4.91275678	     21.28272874	     86.09882640
     15.08333330	     -0.99890125	      7.04598315	   -177.47262847	      0.50129147	      1.06639494	      0.84672984	     18.45734224	      6.33818764	      0.13631285	     38.10940743	      0.66513464	    -13.40840096	    -29.56715433	     -7.49999987	     23.35665547	     -6.91411612	      5.99401590	     47.65009025	      0.83165096	     -0.26148036	    -15.65701605	     -7.49999987	    -19.84095241	      7.05101496	      6.58194418	     14.75721259	    -14.16282438	     -4.05922906	     20.94223888	     83.96571767	     14.20389107	     -6.88702777	     -3.78772340	     21.49400623	     86.62473490
     15.10000000	     -1.06003703	      6.79127638	   -177.74709726	      0.50008616	      1.06630621	      0.84700593	     17.65161348	      6.65150252	     -0.63004193	     35.25149552	      0.61525466	    -13.46026982	    -29.20772121	     -7.49999987	     22.84971417	     -6.49302694	      3.74352582	     45.04126683	      0.78611841	     -0.85784738	    -15.58254060	     -7.49999987	    -20.27555589	      6.71475401	      6.66613705	     15.01948305	    -14.78301701	     -4.63773030	     20.64830725	     84.23488184	     14.22946948	     -7.39074897	     -3.06300238	     21.16177523	     87.33753318
     15.11666670	     -1.07801622	      6.67298870	   -178.01700433	      0.50046915	      1.06618565	      0.84791510	     16.65189579	      7.08046193	     -1.28669852	     32.29446187	      0.56364469	    -13.97334374	    -28.84135767	     -7.49999987	     21.95890139	     -6.19991509	      1.51620235	     42.43867215	      0.74069456	     -0.92754238	    -15.12442851	     -7.49999987	    -20.41465938	      6.52542119	      6.74773990	     15.05696972	    -15.34762872	     -5.12044907	     20.19161243	     84.20408156	     14.20604726	     -7.82706996	     -2.30320536	     20.49717249	     87.63957069
